<svg width="41" height="41" viewBox="0 0 41 41" fill="none" xmlns="http://www.w3.org/2000/svg">
<path d="M20.6537 30.75C21.0979 30.75 21.4652 30.6048 21.7556 30.3144C22.046 30.024 22.1912 29.6567 22.1912 29.2125V22.2425H29.2637C29.6737 22.2425 30.024 22.0973 30.3144 21.8069C30.6048 21.5165 30.75 21.1492 30.75 20.705C30.75 20.2608 30.6048 19.8935 30.3144 19.6031C30.024 19.3127 29.6567 19.1675 29.2125 19.1675H22.1912V11.7362C22.1912 11.3263 22.046 10.976 21.7556 10.6856C21.4652 10.3952 21.0979 10.25 20.6537 10.25C20.2096 10.25 19.8423 10.3952 19.5519 10.6856C19.2615 10.976 19.1162 11.3433 19.1162 11.7875V19.1675H11.7362C11.3262 19.1675 10.976 19.3127 10.6856 19.6031C10.3952 19.8935 10.25 20.2608 10.25 20.705C10.25 21.1492 10.3952 21.5165 10.6856 21.8069C10.976 22.0973 11.3433 22.2425 11.7875 22.2425H19.1162V29.2638C19.1162 29.6738 19.2615 30.024 19.5519 30.3144C19.8423 30.6048 20.2096 30.75 20.6537 30.75ZM20.5 41C17.5958 41 14.8967 40.479 12.4025 39.4369C9.90833 38.3948 7.73875 36.9513 5.89375 35.1063C4.04875 33.2612 2.60521 31.0917 1.56313 28.5975C0.521042 26.1033 0 23.4042 0 20.5C0 17.63 0.521042 14.9479 1.56313 12.4538C2.60521 9.95958 4.04875 7.79 5.89375 5.945C7.73875 4.1 9.90833 2.64792 12.4025 1.58875C14.8967 0.529584 17.5958 0 20.5 0C23.37 0 26.0521 0.529584 28.5462 1.58875C31.0404 2.64792 33.21 4.1 35.055 5.945C36.9 7.79 38.3521 9.95958 39.4113 12.4538C40.4704 14.9479 41 17.63 41 20.5C41 23.4042 40.4704 26.1033 39.4113 28.5975C38.3521 31.0917 36.9 33.2612 35.055 35.1063C33.21 36.9513 31.0404 38.3948 28.5462 39.4369C26.0521 40.479 23.37 41 20.5 41ZM20.5 37.925C25.2833 37.925 29.3833 36.2167 32.8 32.8C36.2167 29.3833 37.925 25.2833 37.925 20.5C37.925 15.7167 36.2167 11.6167 32.8 8.2C29.3833 4.78333 25.2833 3.075 20.5 3.075C15.7167 3.075 11.6167 4.78333 8.2 8.2C4.78333 11.6167 3.075 15.7167 3.075 20.5C3.075 25.2833 4.78333 29.3833 8.2 32.8C11.6167 36.2167 15.7167 37.925 20.5 37.925Z" fill="#00A0E3"/>
</svg>
